<svg height="542" width="720" xmlns="http://www.w3.org/2000/svg">
<rect height="542" fill="#555" width="720"></rect>
<text fill="#7f7" font-family="Courier New" font-size="12" xml:space="preserve">
<tspan x="10" y="26">2016-12-28 23:13:03 +0800</tspan>
<tspan x="10" y="42">downgrade lodash</tspan>
<tspan x="10" y="58"></tspan>
<tspan x="10" y="74">2016-12-28 23:09:57 +0800</tspan>
<tspan x="10" y="90">downgrade lodash</tspan>
<tspan x="10" y="106"></tspan>
<tspan x="10" y="122">2016-12-28 23:09:47 +0800</tspan>
<tspan x="10" y="138">downgrade lodash</tspan>
<tspan x="10" y="154"></tspan>
<tspan x="10" y="170">2016-12-28 23:05:10 +0800</tspan>
<tspan x="10" y="186">update node_modules</tspan>
<tspan x="10" y="202"></tspan>
<tspan x="10" y="218">2016-12-28 22:40:19 +0800</tspan>
<tspan x="10" y="234">update docs</tspan>
<tspan x="10" y="250"></tspan>
<tspan x="10" y="266">2016-12-28 22:37:51 +0800</tspan>
<tspan x="10" y="282">update docs</tspan>
<tspan x="10" y="298"></tspan>
<tspan x="10" y="314">2016-12-28 22:29:07 +0800</tspan>
<tspan x="10" y="330">update docs</tspan>
<tspan x="10" y="346"></tspan>
<tspan x="10" y="362">2016-12-28 22:16:50 +0800</tspan>
<tspan x="10" y="378">update postinstall</tspan>
<tspan x="10" y="394"></tspan>
<tspan x="10" y="410">2016-12-28 22:10:55 +0800</tspan>
<tspan x="10" y="426">update postinstall</tspan>
<tspan x="10" y="442"></tspan>
<tspan x="10" y="458">2016-12-28 21:11:59 +0800</tspan>
<tspan x="10" y="474">- npm publish 2016.12.1</tspan>
<tspan x="10" y="490"></tspan>
<tspan x="10" y="506">2014-03-26 02:31:50 +0700</tspan>
<tspan x="10" y="522">add blank README.md</tspan>
</text>
</svg>
