<svg height="478" width="720" xmlns="http://www.w3.org/2000/svg">
<rect height="478" fill="#555" width="720"></rect>
<text fill="#7f7" font-family="Courier New" font-size="12" xml:space="preserve">
<tspan x="10" y="26"></tspan>
<tspan x="10" y="42">&gt; grpc-lite@2016.12.1 test /home/travis/build/kaizhu256/node-grpc-lite</tspan>
<tspan x="10" y="58">&gt; rm -fr external &amp;&amp; npm run postinstall &amp;&amp; utility2 test test.js</tspan>
<tspan x="10" y="74"></tspan>
<tspan x="10" y="90"></tspan>
<tspan x="10" y="106">&gt; grpc-lite@2016.12.1 postinstall /home/travis/build/kaizhu256/node-grpc-lite</tspan>
<tspan x="10" y="122">&gt; ./lib.grpc.sh shNpmPostinstall</tspan>
<tspan x="10" y="138"></tspan>
<tspan x="10" y="154"></tspan>
<tspan x="10" y="170">[MODE_BUILD=npmTest] - 2016-12-28T13:27:32Z - npm-testing /home/travis/build/kaizhu256/node-grpc\</tspan>
<tspan x="10" y="186">-lite</tspan>
<tspan x="10" y="202"></tspan>
<tspan x="10" y="218"></tspan>
<tspan x="10" y="234">covering $ /home/travis/.nvm/versions/node/v6.9.2/bin/node /home/travis/build/kaizhu256/node-grp\</tspan>
<tspan x="10" y="250">c-lite/test.js</tspan>
<tspan x="10" y="266">merging file:///home/travis/build/kaizhu256/node-grpc-lite/tmp/build/test-report.json to test-re\</tspan>
<tspan x="10" y="282">port</tspan>
<tspan x="10" y="298">merging file:///home/travis/build/kaizhu256/node-grpc-lite/tmp/build/test-report.json to test-re\</tspan>
<tspan x="10" y="314">port</tspan>
<tspan x="10" y="330"></tspan>
<tspan x="10" y="346">-------------------------------------------------------</tspan>
<tspan x="10" y="362"></tspan>
<tspan x="10" y="378"></tspan>
<tspan x="10" y="394">created test-report file:///home/travis/build/kaizhu256/node-grpc-lite/tmp/build/test-report.htm\</tspan>
<tspan x="10" y="410">l</tspan>
<tspan x="10" y="426"></tspan>
<tspan x="10" y="442"></tspan>
<tspan x="10" y="458">npmTest - 0 failed tests</tspan>
</text>
</svg>
