<svg height="910" width="720" xmlns="http://www.w3.org/2000/svg">
<rect height="910" fill="#555" width="720"></rect>
<text fill="#7f7" font-family="Courier New" font-size="12" xml:space="preserve">
<tspan x="10" y="26"></tspan>
<tspan x="10" y="42">[MODE_BUILD=npmTestPublished] - 2016-12-28T13:27:17Z - npm-testing published-package grpc-lite</tspan>
<tspan x="10" y="58"></tspan>
<tspan x="10" y="74"></tspan>
<tspan x="10" y="90">&gt; grpc-lite@2016.12.1 postinstall /tmp/app/node_modules/grpc-lite</tspan>
<tspan x="10" y="106">&gt; ./lib.grpc.sh shNpmPostinstall</tspan>
<tspan x="10" y="122"></tspan>
<tspan x="10" y="138">/tmp/app</tspan>
<tspan x="10" y="154">└── grpc-lite@2016.12.1 </tspan>
<tspan x="10" y="170"></tspan>
<tspan x="10" y="186">npm WARN enoent ENOENT: no such file or directory, open '/tmp/app/package.json'</tspan>
<tspan x="10" y="202">npm WARN app No description</tspan>
<tspan x="10" y="218">npm WARN app No repository field.</tspan>
<tspan x="10" y="234">npm WARN app No README data</tspan>
<tspan x="10" y="250">npm WARN app No license field.</tspan>
<tspan x="10" y="266"></tspan>
<tspan x="10" y="282">&gt; electron-lite@2016.12.1 postinstall /tmp/app/node_modules/grpc-lite/node_modules/electron-lite</tspan>
<tspan x="10" y="298">&gt; ./lib.electron.sh shNpmPostinstall</tspan>
<tspan x="10" y="314"></tspan>
<tspan x="10" y="330"></tspan>
<tspan x="10" y="346">&gt; grpc-lite@2016.12.1 postinstall /tmp/app/node_modules/grpc-lite</tspan>
<tspan x="10" y="362">&gt; ./lib.grpc.sh shNpmPostinstall</tspan>
<tspan x="10" y="378"></tspan>
<tspan x="10" y="394">grpc-lite@2016.12.1 /tmp/app/node_modules/grpc-lite</tspan>
<tspan x="10" y="410">├── electron-lite@2016.12.1  (git://github.com/kaizhu256/node-electron-lite.git#2d3e77db763e8b32\</tspan>
<tspan x="10" y="426">e16cc8847bb6fd16b2216435)</tspan>
<tspan x="10" y="442">├── n@2.1.4 </tspan>
<tspan x="10" y="458">└── utility2@2016.12.3  (git://github.com/kaizhu256/node-utility2.git#eca49e1494daf650aeface5e4c\</tspan>
<tspan x="10" y="474">6c048b4cd5bc4c)</tspan>
<tspan x="10" y="490"></tspan>
<tspan x="10" y="506">npm WARN enoent ENOENT: no such file or directory, open '/tmp/app/node_modules/grpc-lite/externa\</tspan>
<tspan x="10" y="522">l/package.json'</tspan>
<tspan x="10" y="538"></tspan>
<tspan x="10" y="554">&gt; grpc-lite@2016.12.1 test /tmp/app/node_modules/grpc-lite</tspan>
<tspan x="10" y="570">&gt; rm -fr external &amp;&amp; npm run postinstall &amp;&amp; utility2 test test.js</tspan>
<tspan x="10" y="586"></tspan>
<tspan x="10" y="602"></tspan>
<tspan x="10" y="618">&gt; grpc-lite@2016.12.1 postinstall /tmp/app/node_modules/grpc-lite</tspan>
<tspan x="10" y="634">&gt; ./lib.grpc.sh shNpmPostinstall</tspan>
<tspan x="10" y="650"></tspan>
<tspan x="10" y="666"></tspan>
<tspan x="10" y="682">[MODE_BUILD=npmTestPublished] - 2016-12-28T13:27:28Z - npm-testing /tmp/app/node_modules/grpc-li\</tspan>
<tspan x="10" y="698">te</tspan>
<tspan x="10" y="714"></tspan>
<tspan x="10" y="730"></tspan>
<tspan x="10" y="746">covering $ /home/travis/.nvm/versions/node/v6.9.2/bin/node /tmp/app/node_modules/grpc-lite/test.\</tspan>
<tspan x="10" y="762">js</tspan>
<tspan x="10" y="778"></tspan>
<tspan x="10" y="794">-------------------------------------------------------</tspan>
<tspan x="10" y="810"></tspan>
<tspan x="10" y="826"></tspan>
<tspan x="10" y="842">created test-report file:///tmp/app/node_modules/grpc-lite/tmp/build/test-report.html</tspan>
<tspan x="10" y="858"></tspan>
<tspan x="10" y="874"></tspan>
<tspan x="10" y="890">npmTestPublished - 0 failed tests</tspan>
</text>
</svg>
